<?xml version="1.0" standalone="no"?><!DOCTYPE svg PUBLIC "-//W3C//DTD SVG 1.1//EN" "http://www.w3.org/Graphics/SVG/1.1/DTD/svg11.dtd"><svg class="icon" height="512" viewBox="0 0 1024 1024" version="1.1" xmlns="http://www.w3.org/2000/svg"><path d="M394.24 71.68C427.52 7.68 506.88-17.92 570.88 15.36c40.96 20.48 69.12 61.44 71.68 107.52 2.56 46.08-20.48 89.6-58.88 115.2-38.4 25.6-89.6 28.16-130.56 7.68-64-35.84-92.16-112.64-58.88-174.08zM17.92 832c35.84 61.44 117.76 81.92 179.2 46.08s84.48-112.64 48.64-174.08c-35.84-61.44-117.76-81.92-179.2-46.08C2.56 691.2-17.92 770.56 17.92 832z m12.8-299.52c28.16-10.24 58.88-17.92 89.6-20.48 12.8-110.08 71.68-204.8 158.72-266.24-15.36-25.6-23.04-56.32-28.16-84.48-128 79.36-212.48 215.04-220.16 371.2z m872.96-20.48c30.72 2.56 58.88 7.68 89.6 20.48-7.68-156.16-92.16-291.84-220.16-371.2-5.12 30.72-12.8 58.88-28.16 84.48 87.04 61.44 145.92 156.16 158.72 266.24z m-232.96 394.24c-48.64 20.48-102.4 33.28-158.72 33.28s-110.08-12.8-158.72-33.28c-15.36 25.6-38.4 46.08-61.44 64C358.4 1003.52 432.64 1024 512 1024c79.36 0 153.6-20.48 220.16-53.76-25.6-17.92-46.08-38.4-61.44-64z m156.16-28.16c64 35.84 143.36 15.36 179.2-46.08 35.84-61.44 15.36-138.24-48.64-174.08-64-35.84-143.36-15.36-179.2 46.08-35.84 61.44-15.36 138.24 48.64 174.08z" /></svg>